<svg xmlns="http://www.w3.org/2000/svg" width="960" height="520" viewBox="0 0 960 520">
  <rect width="960" height="520" fill="#ffffff"/>
  <rect x="40" y="40" width="880" height="440" rx="16" fill="#f7f8fb" stroke="#d9dde5"/>
  <text x="70" y="85" font-family="Inter, Arial, sans-serif" font-size="20" fill="#1f2937">Fint Architecture Overview</text>

  <rect x="90" y="130" width="330" height="260" rx="12" fill="#ffffff" stroke="#e5e7eb"/>
  <text x="120" y="165" font-family="Inter, Arial, sans-serif" font-size="16" fill="#111827">Frontend SDK</text>
  <text x="120" y="195" font-family="Inter, Arial, sans-serif" font-size="13" fill="#4b5563">Collect card, contact, shipping</text>
  <text x="120" y="220" font-family="Inter, Arial, sans-serif" font-size="13" fill="#4b5563">Render wallet UI</text>
  <text x="120" y="245" font-family="Inter, Arial, sans-serif" font-size="13" fill="#4b5563">Client-side validation</text>
  <rect x="120" y="275" width="240" height="38" rx="8" fill="#eef2ff" stroke="#c7d2fe"/>
  <text x="135" y="300" font-family="Inter, Arial, sans-serif" font-size="12" fill="#3730a3">Auth: Public Key (pk_*)</text>

  <rect x="540" y="130" width="330" height="260" rx="12" fill="#ffffff" stroke="#e5e7eb"/>
  <text x="570" y="165" font-family="Inter, Arial, sans-serif" font-size="16" fill="#111827">Backend SDK</text>
  <text x="570" y="195" font-family="Inter, Arial, sans-serif" font-size="13" fill="#4b5563">Create mandates</text>
  <text x="570" y="220" font-family="Inter, Arial, sans-serif" font-size="13" fill="#4b5563">Request reveal tokens</text>
  <text x="570" y="245" font-family="Inter, Arial, sans-serif" font-size="13" fill="#4b5563">Retrieve card details</text>
  <rect x="570" y="275" width="240" height="38" rx="8" fill="#ecfdf3" stroke="#bbf7d0"/>
  <text x="585" y="300" font-family="Inter, Arial, sans-serif" font-size="12" fill="#065f46">Auth: Secret Key (sk_*)</text>

  <rect x="405" y="150" width="150" height="60" rx="10" fill="#fff7ed" stroke="#fed7aa"/>
  <text x="430" y="185" font-family="Inter, Arial, sans-serif" font-size="12" fill="#9a3412">Mandate</text>

  <rect x="405" y="235" width="150" height="60" rx="10" fill="#eff6ff" stroke="#bfdbfe"/>
  <text x="418" y="270" font-family="Inter, Arial, sans-serif" font-size="12" fill="#1d4ed8">Reveal Token</text>

  <line x1="420" y1="180" x2="540" y2="180" stroke="#94a3b8" stroke-width="2"/>
  <line x1="420" y1="265" x2="540" y2="265" stroke="#94a3b8" stroke-width="2"/>
  <line x1="405" y1="210" x2="420" y2="210" stroke="#94a3b8" stroke-width="2"/>
  <line x1="405" y1="240" x2="420" y2="240" stroke="#94a3b8" stroke-width="2"/>

  <rect x="310" y="410" width="340" height="50" rx="10" fill="#111827"/>
  <text x="345" y="442" font-family="Inter, Arial, sans-serif" font-size="13" fill="#ffffff">User Payment Data (Stored Securely)</text>
</svg>
