<svg xmlns="http://www.w3.org/2000/svg" width="960" height="520" viewBox="0 0 960 520">
  <rect width="960" height="520" fill="#ffffff"/>
  <text x="40" y="60" font-family="Inter, Arial, sans-serif" font-size="20" fill="#111827">Agent Wallet UI Example</text>

  <rect x="60" y="100" width="400" height="360" rx="18" fill="#0f172a"/>
  <rect x="85" y="130" width="350" height="46" rx="10" fill="#111827"/>
  <text x="105" y="160" font-family="Inter, Arial, sans-serif" font-size="13" fill="#e5e7eb">Wallet • Cards</text>
  <rect x="85" y="195" width="350" height="90" rx="12" fill="#1f2937"/>
  <text x="105" y="230" font-family="Inter, Arial, sans-serif" font-size="12" fill="#f9fafb">Default Card</text>
  <text x="105" y="255" font-family="Inter, Arial, sans-serif" font-size="16" fill="#f9fafb">•••• 4242</text>
  <text x="300" y="255" font-family="Inter, Arial, sans-serif" font-size="12" fill="#cbd5f5">12/25</text>
  <rect x="85" y="300" width="350" height="130" rx="12" fill="#111827"/>
  <text x="105" y="335" font-family="Inter, Arial, sans-serif" font-size="12" fill="#e5e7eb">Shipping Address</text>
  <text x="105" y="360" font-family="Inter, Arial, sans-serif" font-size="12" fill="#94a3b8">123 Main St</text>
  <text x="105" y="380" font-family="Inter, Arial, sans-serif" font-size="12" fill="#94a3b8">New York, NY 10001</text>

  <rect x="520" y="120" width="380" height="320" rx="18" fill="#f8fafc" stroke="#e5e7eb"/>
  <text x="550" y="160" font-family="Inter, Arial, sans-serif" font-size="14" fill="#111827">Add Payment Method</text>
  <rect x="550" y="185" width="320" height="44" rx="10" fill="#ffffff" stroke="#e2e8f0"/>
  <text x="565" y="213" font-family="Inter, Arial, sans-serif" font-size="11" fill="#94a3b8">Card number</text>
  <rect x="550" y="240" width="150" height="44" rx="10" fill="#ffffff" stroke="#e2e8f0"/>
  <text x="565" y="268" font-family="Inter, Arial, sans-serif" font-size="11" fill="#94a3b8">MM/YY</text>
  <rect x="720" y="240" width="150" height="44" rx="10" fill="#ffffff" stroke="#e2e8f0"/>
  <text x="735" y="268" font-family="Inter, Arial, sans-serif" font-size="11" fill="#94a3b8">CVV</text>
  <rect x="550" y="300" width="320" height="44" rx="10" fill="#ffffff" stroke="#e2e8f0"/>
  <text x="565" y="328" font-family="Inter, Arial, sans-serif" font-size="11" fill="#94a3b8">Billing ZIP</text>
  <rect x="550" y="360" width="320" height="48" rx="12" fill="#111827"/>
  <text x="665" y="390" font-family="Inter, Arial, sans-serif" font-size="12" fill="#ffffff">Save Card</text>
</svg>
